*
G04 Mass Parameters ***
*
G04 Image ***
*
%INC:\USERS\VILLAVERDE\DESKTOP\KAIROS\CARDIOMED\WCS PULSE\PROTOTYPE\LAYOUT\LONGHORN_NEW-1.TOP*%
%ICAS*%
%MOIN*%
%IPPOS*%
%ASAXBY*%
G74*%FSLAN2X34Y34*%
*
G04 Aperture Definitions ***
*
%ADD10R,0.0600X0.0600*%
%ADD11C,0.0550*%
%ADD12R,0.0550X0.0550*%
%ADD13R,0.0500X0.0500*%
%ADD14R,0.1575X0.1575*%
%ADD15C,0.2028*%
%ADD16O,0.0900X0.0160*%
%ADD17R,0.0900X0.0160*%
%ADD18C,0.0620*%
%ADD19C,0.0100*%
%ADD20C,0.0300*%
*
G04 Plot Data ***
*
G54D19*
G01X0002953Y0015748D02*
X0003209Y0015492D01*
X0004784D01*
X0008998Y0020257D02*
X0009509D01*
X0010157Y0020906D01*
X0013425Y0015512D02*
X0015354Y0017441D01*
Y0019369D01*
X0004724Y0017913D02*
X0003118D01*
X0002953Y0017748D01*
X0004587Y0019035D02*
X0004724Y0018898D01*
Y0017913D01*
X0004587Y0019035D02*
X0005177D01*
X0005631Y0019489D01*
X0006298D01*
X0013425Y0015512D02*
Y0016339D01*
X0012953Y0016811D01*
X0007717D01*
X0007205Y0016299D01*
Y0015512D01*
Y0014055D02*
Y0015512D01*
X0005965Y0006949D02*
Y0007893D01*
X0005334Y0008524D01*
X0004587D01*
X0004724Y0017913D02*
X0007126Y0015512D01*
X0007205D01*
X0011205Y0021669D02*
Y0021362D01*
X0009844Y0020001D01*
X0008998D01*
X0011205Y0019669D02*
X0011129Y0019745D01*
X0008998D01*
X0015354Y0020669D02*
X0015339Y0020685D01*
X0013189D01*
X0008688Y0005879D02*
X0007533Y0004724D01*
X0004283D01*
X0002953Y0006055D01*
X0010493Y0006752D02*
X0009804Y0007441D01*
X0006457D01*
X0005965Y0006949D01*
X0004587Y0020335D02*
X0004665Y0020257D01*
X0006298D01*
X0004587Y0008524D02*
X0004056Y0009055D01*
X0002953D01*
X0004784Y0016792D02*
X0002996D01*
X0002953Y0016748D01*
X0013189Y0019685D02*
X0012244Y0018740D01*
X0010787D01*
X0010038Y0019489D01*
X0008998D01*
X0006024Y0017913D02*
X0006693Y0017245D01*
X0006024Y0017913D02*
X0010000D01*
X0010787Y0018701D01*
X0012205D01*
X0013189Y0019685D01*
X0002953Y0019748D02*
X0003008Y0019803D01*
X0005236D01*
X0005434Y0020001D01*
X0006298D01*
X0002953Y0018748D02*
X0003772Y0019567D01*
X0005354D01*
X0005533Y0019745D01*
X0006298D01*
X0004587Y0007224D02*
X0004418Y0007055D01*
X0002953D01*
X0008688Y0006719D02*
X0007035D01*
X0005965Y0005649D01*
X0013189Y0005709D02*
X0012933Y0005452D01*
X0010493D01*
X0007205Y0009331D02*
Y0008110D01*
X0007441Y0007874D01*
X0011535D01*
X0010118Y0021811D02*
Y0021496D01*
X0009647Y0021025D01*
X0008998D01*
Y0021281D02*
X0009470D01*
X0009606Y0021417D01*
Y0022047D01*
X0009961Y0022402D01*
X0011654D01*
X0012520Y0021535D01*
X0015512D01*
X0016024Y0021024D01*
Y0009543D01*
X0013189Y0006709D01*
X0008688Y0006719D02*
X0009304D01*
X0009724Y0006299D01*
X0011102D01*
X0013425Y0008622D01*
Y0009331D01*
G54D10*
X0010493Y0005452D03*
Y0006752D03*
X0005965Y0005649D03*
Y0006949D03*
X0015354Y0020669D03*
Y0019369D03*
X0004587Y0007224D03*
Y0008524D03*
X0004784Y0016792D03*
Y0015492D03*
X0004587Y0019035D03*
Y0020335D03*
X0006024Y0017913D03*
X0004724D03*
G54D11*
X0002953Y0016748D03*
Y0017748D03*
Y0018748D03*
Y0019748D03*
Y0020748D03*
Y0008055D03*
Y0007055D03*
Y0006055D03*
X0013189Y0006709D03*
Y0020685D03*
G54D12*
X0002953Y0015748D03*
Y0009055D03*
X0013189Y0005709D03*
Y0019685D03*
G54D13*
X0008688Y0005879D03*
Y0006719D03*
G54D14*
X0013425Y0009331D03*
X0007205Y0015512D03*
Y0009331D03*
X0013425Y0015512D03*
G54D15*
X0015354Y0003346D03*
X0002362D03*
Y0022835D03*
X0015354D03*
G54D16*
X0008998Y0019745D03*
Y0020001D03*
Y0020257D03*
Y0020513D03*
Y0020769D03*
Y0021025D03*
Y0021281D03*
Y0021537D03*
Y0021793D03*
X0006298D03*
Y0021537D03*
Y0021281D03*
Y0021025D03*
Y0020769D03*
Y0020513D03*
Y0020257D03*
Y0020001D03*
Y0019745D03*
Y0019489D03*
G54D17*
X0008998D03*
G54D18*
X0011205Y0021669D03*
Y0019669D03*
G54D20*
X0010157Y0020906D03*
X0007205Y0014055D03*
X0006693Y0017245D03*
X0011535Y0007874D03*
X0010118Y0021811D03*
M02*
