*
G04 Mass Parameters ***
*
G04 Image ***
*
%INC:\USERS\VILLAVERDE\DESKTOP\KAIROS\CARDIOMED\WCS PULSE\PROTOTYPE\LAYOUT\LONGHORN_NEW-1.SST*%
%ICAS*%
%MOIN*%
%IPPOS*%
%ASAXBY*%
G74*%FSLAN2X34Y34*%
*
G04 Aperture Definitions ***
*
%ADD10R,0.0600X0.0600*%
%ADD11C,0.0550*%
%ADD12R,0.0550X0.0550*%
%ADD13R,0.0500X0.0500*%
%ADD14R,0.1575X0.1575*%
%ADD15C,0.2028*%
%ADD16O,0.0900X0.0160*%
%ADD17R,0.0900X0.0160*%
%ADD18C,0.0620*%
%ADD19C,0.0100*%
%ADD20C,0.0300*%
%ADD21C,0.0000*%
%ADD22C,0.0300*%
%ADD23C,0.2047*%
%ADD24C,0.0670*%
%ADD25C,0.0350*%
%ADD26C,0.0080*%
%ADD27C,0.0060*%
*
G04 Plot Data ***
*
G54D19*
G01X0016172Y0012158D02*
X0016088Y0012074D01*
X0016005Y0012033D01*
X0015838D01*
X0015755Y0012074D01*
X0015672Y0012158D01*
Y0012241D01*
X0015755Y0012324D01*
X0015838Y0012366D01*
X0016005D01*
X0016088Y0012324D01*
X0016172Y0012241D01*
Y0012158D01*
Y0011708D02*
Y0011791D01*
X0016088D01*
Y0011708D01*
X0016172D01*
Y0011383D02*
Y0011049D01*
X0015838Y0011383D01*
X0015755D01*
X0015672Y0011341D01*
Y0011091D01*
X0015755Y0011049D01*
X0015672Y0010808D02*
X0015838D01*
X0016172Y0010641D01*
X0015838Y0010474D01*
X0015672D01*
X0016338Y0010233D02*
Y0009899D01*
X0015922Y0009574D02*
Y0009324D01*
X0016172Y0009658D02*
Y0009324D01*
X0015672D01*
Y0009658D01*
X0015755Y0009083D02*
X0015672Y0009041D01*
Y0008791D01*
X0015755Y0008749D01*
X0015838D01*
X0015922Y0008791D01*
Y0009041D01*
X0016005Y0009083D01*
X0016088D01*
X0016172Y0009041D01*
Y0008791D01*
X0016088Y0008749D01*
X0016172Y0008508D02*
Y0008216D01*
X0015672D01*
Y0007974D02*
X0016088D01*
X0016172Y0007933D01*
Y0007683D01*
X0016088Y0007641D01*
X0015672D01*
X0015922Y0007066D02*
Y0007316D01*
X0015838Y0007399D01*
X0015755D01*
X0015672Y0007316D01*
Y0007066D01*
X0016172D01*
X0016338Y0006824D02*
Y0006491D01*
X0015755Y0006249D02*
X0015672Y0006208D01*
Y0005958D01*
X0015755Y0005916D01*
X0015838D01*
X0015922Y0005958D01*
Y0006208D01*
X0016005Y0006249D01*
X0016088D01*
X0016172Y0006208D01*
Y0005958D01*
X0016088Y0005916D01*
Y0005674D02*
X0016172Y0005633D01*
Y0005383D01*
X0016088Y0005341D01*
X0015755D01*
X0015672Y0005383D01*
Y0005633D01*
X0015755Y0005674D01*
X0015672Y0005099D02*
X0016088D01*
X0016172Y0005058D01*
X0015922Y0004933D01*
X0015838D02*
X0015922D01*
X0016172Y0004808D01*
X0016088Y0004766D01*
X0015672D01*
X0011207Y0023317D02*
Y0023139D01*
Y0023228D02*
X0010674D01*
X0010762Y0023139D01*
X0011207Y0022628D02*
X0010940D01*
X0010674Y0022806D02*
X0010940Y0022672D01*
Y0022583D01*
X0010674Y0022450D01*
X0010705Y0021919D02*
Y0019419D01*
X0011705D02*
Y0021919D01*
G01X0011205Y0022169D02*
G03X0010705Y0021919I0000000J0000625D01*
G01X0011705D02*
G03X0011205Y0022169I0000500J0000375D01*
Y0019169D02*
G03X0011705Y0019419I0000000J0000625D01*
G01X0010705D02*
G03X0011205Y0019169I0000500J0000375D01*
G54D26*
G01X0013347Y0004756D02*
Y0004534D01*
X0013125Y0004756D01*
X0013070D01*
X0013014Y0004728D01*
Y0004562D01*
X0013070Y0004534D01*
X0013347Y0004152D02*
X0013014D01*
X0013347Y0004124D02*
Y0004291D01*
X0013236Y0004346D01*
X0013125D01*
X0013014Y0004291D01*
Y0004124D01*
X0002231Y0015938D02*
Y0015716D01*
X0002008Y0015938D01*
X0001953D01*
X0001897Y0015910D01*
Y0015744D01*
X0001953Y0015716D01*
X0002120Y0015334D02*
X0002175D01*
X0002231Y0015362D01*
Y0015473D01*
X0002175Y0015500D01*
X0001897D01*
Y0015528D02*
Y0015417D01*
X0002230Y0006305D02*
Y0006194D01*
Y0006249D02*
X0001896D01*
X0001952Y0006194D01*
X0002119Y0005756D02*
X0002174D01*
X0002230Y0005784D01*
Y0005895D01*
X0002174Y0005923D01*
X0001896D01*
Y0005950D02*
Y0005839D01*
X0007973Y0018846D02*
Y0018735D01*
Y0018790D02*
X0007639D01*
X0007695Y0018735D01*
X0007639Y0018491D02*
X0007917D01*
X0007973Y0018464D01*
Y0018297D01*
X0007917Y0018269D01*
X0007639D01*
X0013387Y0018834D02*
Y0018723D01*
Y0018779D02*
X0013053D01*
X0013109Y0018723D01*
X0013387Y0018286D02*
X0013053D01*
X0013387Y0018258D02*
Y0018424D01*
X0013276Y0018480D01*
X0013165D01*
X0013053Y0018424D01*
Y0018258D01*
X0002453Y0009605D02*
X0002403Y0009655D01*
X0002453Y0005605D02*
X0003453D01*
Y0009605D01*
X0002453D01*
Y0005605D01*
X0003453Y0015248D02*
Y0021248D01*
X0002453D01*
Y0015248D01*
X0003453D01*
X0003503Y0015198D01*
X0013689Y0019185D02*
Y0021185D01*
X0012689D01*
Y0019185D01*
X0013689D01*
X0013739Y0019135D01*
X0006898Y0019266D02*
Y0022016D01*
X0008398D01*
Y0019266D01*
X0006898D01*
Y0019516D02*
X0008398D01*
X0013689Y0005209D02*
Y0007209D01*
X0012689D01*
Y0005209D01*
X0013689D01*
X0013739Y0005159D01*
G54D27*
G01X0016312Y0020810D02*
X0016368Y0020866D01*
Y0020977D01*
X0016312Y0021033D01*
X0016257D01*
X0016146Y0020921D01*
X0016035Y0021033D01*
Y0020810D01*
X0016201Y0020579D02*
X0016368Y0020663D01*
X0016201Y0020440D02*
Y0020607D01*
X0016146Y0020663D01*
X0016090D01*
X0016035Y0020607D01*
Y0020440D01*
X0016368D01*
X0007007Y0018428D02*
Y0018317D01*
Y0018372D02*
X0006673D01*
X0006729Y0018317D01*
X0006951Y0018113D02*
X0007007Y0018085D01*
Y0017919D01*
X0006951Y0017891D01*
X0006729D01*
X0006673Y0017919D01*
Y0018085D01*
X0006729Y0018113D01*
X0005271Y0005975D02*
Y0005752D01*
X0005049Y0005864D01*
Y0005919D01*
X0005382D01*
X0005216Y0005521D02*
X0005382Y0005605D01*
X0005216Y0005382D02*
Y0005549D01*
X0005160Y0005605D01*
X0005104D01*
X0005049Y0005549D01*
Y0005382D01*
X0005382D01*
X0005719Y0015761D02*
Y0015650D01*
Y0015705D02*
X0005385D01*
X0005441Y0015650D01*
X0005552Y0015363D02*
X0005719Y0015446D01*
X0005552Y0015224D02*
Y0015391D01*
X0005496Y0015446D01*
X0005441D01*
X0005385Y0015391D01*
Y0015224D01*
X0005719D01*
X0006113Y0009686D02*
X0006169Y0009741D01*
Y0009852D01*
X0006113Y0009908D01*
X0006058D01*
X0005947Y0009797D01*
X0005835Y0009908D01*
Y0009686D01*
X0006058Y0009343D02*
X0006113D01*
X0006169Y0009371D01*
Y0009482D01*
X0006113Y0009510D01*
X0005835D01*
Y0009538D02*
Y0009427D01*
X0005461Y0009006D02*
Y0008784D01*
X0005239Y0009006D01*
X0005183D01*
X0005128Y0008978D01*
Y0008812D01*
X0005183Y0008784D01*
X0005294Y0008553D02*
X0005461Y0008636D01*
X0005294Y0008414D02*
Y0008581D01*
X0005239Y0008636D01*
X0005183D01*
X0005128Y0008581D01*
Y0008414D01*
X0005461D01*
X0009854Y0005477D02*
X0009910Y0005505D01*
Y0005671D01*
X0009854Y0005699D01*
X0009743D01*
X0009688Y0005644D01*
Y0005477D01*
X0009576D01*
Y0005699D01*
X0009743Y0005246D02*
X0009910Y0005329D01*
X0009743Y0005107D02*
Y0005274D01*
X0009688Y0005329D01*
X0009632D01*
X0009576Y0005274D01*
Y0005107D01*
X0009910D01*
X0008128Y0005884D02*
X0008184Y0005940D01*
Y0006051D01*
X0008128Y0006107D01*
X0008073D01*
X0007962Y0005995D01*
X0007850Y0006107D01*
Y0005884D01*
X0008184Y0005542D02*
X0007850D01*
X0008184Y0005514D02*
Y0005681D01*
X0008073Y0005737D01*
X0007962D01*
X0007850Y0005681D01*
Y0005514D01*
X0005618Y0020699D02*
Y0020477D01*
X0005396Y0020699D01*
X0005341D01*
X0005285Y0020671D01*
Y0020505D01*
X0005341Y0020477D01*
X0005563Y0020329D02*
X0005618Y0020301D01*
Y0020135D01*
X0005563Y0020107D01*
X0005341D01*
X0005285Y0020135D01*
Y0020301D01*
X0005341Y0020329D01*
X0005037Y0008974D02*
Y0006774D01*
X0004137D01*
Y0008974D01*
X0005037D01*
X0014904Y0018919D02*
Y0021119D01*
X0015804D01*
Y0018919D01*
X0014904D01*
X0006415Y0007399D02*
Y0005199D01*
X0005515D01*
Y0007399D01*
X0006415D01*
X0010943Y0007202D02*
Y0005002D01*
X0010043D01*
Y0007202D01*
X0010943D01*
X0006339Y0016378D02*
Y0008465D01*
X0014291D01*
Y0016378D01*
X0006339D01*
X0009063Y0007099D02*
X0008313D01*
Y0005499D01*
X0009063D01*
Y0007099D01*
X0005037Y0020785D02*
Y0018585D01*
X0004137D01*
Y0020785D01*
X0005037D01*
X0004334Y0015042D02*
Y0017242D01*
X0005234D01*
Y0015042D01*
X0004334D01*
X0004274Y0018363D02*
X0006474D01*
Y0017463D01*
X0004274D01*
Y0018363D01*
M02*
