*
G04 Mass Parameters ***
*
G04 Image ***
*
%INC:\DOCUMENTS AND SETTINGS\VILLAVERDE\MEUS DOCUMENTOS\CARDIOMED\PROJETO LONGHORN\LAYOUT\LONGHORN-3.SST*%
%ICAS*%
%MOIN*%
%IPPOS*%
%ASAXBY*%
G74*%FSLAN2X34Y34*%
*
G04 Aperture Definitions ***
*
%ADD10R,0.0600X0.0600*%
%ADD11C,0.0620*%
%ADD12R,0.0620X0.0620*%
%ADD13C,0.0580*%
%ADD14R,0.0580X0.0580*%
%ADD15O,0.0160X0.0900*%
%ADD16R,0.0160X0.0900*%
%ADD17O,0.0250X0.0940*%
%ADD18R,0.0250X0.0940*%
%ADD19C,0.0100*%
%ADD20C,0.0300*%
%ADD21C,0.0620*%
%ADD22R,0.0620X0.0620*%
%ADD23C,0.0580*%
%ADD24R,0.0580X0.0580*%
%ADD25C,0.0300*%
%ADD26R,0.0600X0.0600*%
%ADD27C,0.2047*%
%ADD28O,0.0160X0.0900*%
%ADD29R,0.0160X0.0900*%
%ADD30O,0.0250X0.0940*%
%ADD31R,0.0250X0.0940*%
%ADD32C,0.0350*%
%ADD33C,0.0080*%
%ADD34C,0.0060*%
*
G04 Plot Data ***
*
G54D33*
G01X-0039469Y-0007058D02*
Y-0006947D01*
Y-0007002D02*
X-0039135D01*
X-0039191Y-0006947D01*
X-0025890Y-0008217D02*
X-0026057D01*
X-0025834Y-0008384D02*
X-0026057D01*
Y-0008051D01*
X-0025834D01*
X-0026244Y-0008106D02*
X-0026272Y-0008051D01*
X-0026439D01*
X-0026467Y-0008106D01*
Y-0008162D01*
X-0026439Y-0008217D01*
X-0026272D01*
X-0026244Y-0008273D01*
Y-0008329D01*
X-0026272Y-0008384D01*
X-0026439D01*
X-0026467Y-0008329D01*
X-0026654Y-0008384D02*
X-0026849D01*
Y-0008051D01*
X-0027037D02*
Y-0008329D01*
X-0027064Y-0008384D01*
X-0027231D01*
X-0027259Y-0008329D01*
Y-0008051D01*
X-0027669Y-0008217D02*
X-0027502D01*
X-0027447Y-0008162D01*
Y-0008106D01*
X-0027502Y-0008051D01*
X-0027669D01*
Y-0008384D01*
X-0028391Y-0008106D02*
X-0028419Y-0008051D01*
X-0028586D01*
X-0028614Y-0008106D01*
Y-0008162D01*
X-0028586Y-0008217D01*
X-0028419D01*
X-0028391Y-0008273D01*
Y-0008329D01*
X-0028419Y-0008384D01*
X-0028586D01*
X-0028614Y-0008329D01*
X-0028801D02*
X-0028829Y-0008384D01*
X-0028996D01*
X-0029024Y-0008329D01*
Y-0008106D01*
X-0028996Y-0008051D01*
X-0028829D01*
X-0028801Y-0008106D01*
X-0029211Y-0008051D02*
Y-0008329D01*
X-0029239Y-0008384D01*
X-0029323Y-0008217D01*
Y-0008162D02*
Y-0008217D01*
X-0029406Y-0008384D01*
X-0029434Y-0008329D01*
Y-0008051D01*
X-0026578Y-0008935D02*
X-0026633Y-0008880D01*
X-0026661Y-0008824D01*
Y-0008713D01*
X-0026633Y-0008658D01*
X-0026578Y-0008602D01*
X-0026522D01*
X-0026467Y-0008658D01*
X-0026439Y-0008713D01*
Y-0008824D01*
X-0026467Y-0008880D01*
X-0026522Y-0008935D01*
X-0026578D01*
X-0026904D02*
X-0026849D01*
Y-0008880D01*
X-0026904D01*
Y-0008935D01*
X-0027148D02*
X-0027259D01*
X-0027203D02*
Y-0008602D01*
X-0027259Y-0008658D01*
X-0028120Y-0008769D02*
X-0028037Y-0008935D01*
X-0028259Y-0008769D02*
X-0028093D01*
X-0028037Y-0008713D01*
Y-0008658D01*
X-0028093Y-0008602D01*
X-0028259D01*
Y-0008935D01*
X-0028503Y-0008769D02*
X-0028669D01*
X-0028447Y-0008935D02*
X-0028669D01*
Y-0008602D01*
X-0028447D01*
X-0028857D02*
Y-0008713D01*
X-0028968Y-0008935D01*
X-0029079Y-0008713D01*
Y-0008602D01*
X-0039358Y-0011916D02*
Y-0011694D01*
X-0039135Y-0011805D01*
Y-0011861D01*
X-0039469D01*
X-0029775Y-0013421D02*
X-0029997D01*
X-0029775Y-0013199D01*
Y-0013143D01*
X-0029803Y-0013088D01*
X-0029969D01*
X-0029997Y-0013143D01*
X-0030185Y-0013088D02*
Y-0013365D01*
X-0030213Y-0013421D01*
X-0030379D01*
X-0030407Y-0013365D01*
Y-0013088D01*
X-0035836Y-0003327D02*
X-0035947D01*
X-0035892D02*
Y-0002994D01*
X-0035947Y-0003049D01*
X-0027014Y-0017140D02*
X-0027125D01*
X-0027069D02*
Y-0016806D01*
X-0027125Y-0016862D01*
X-0027368Y-0017140D02*
X-0027563D01*
Y-0016806D01*
X-0038051Y-0008009D02*
X-0038162D01*
X-0038106D02*
Y-0007676D01*
X-0038162Y-0007732D01*
X-0038599Y-0007898D02*
Y-0007954D01*
X-0038572Y-0008009D01*
X-0038461D01*
X-0038433Y-0007954D01*
Y-0007676D01*
X-0038405D02*
X-0038516D01*
X-0028975Y-0003160D02*
X-0028809D01*
X-0028781Y-0003216D01*
Y-0003272D01*
X-0028809Y-0003327D01*
X-0028975D01*
X-0029003Y-0003272D01*
Y-0003216D01*
X-0028892Y-0002994D01*
X-0033961Y-0006032D02*
X-0034072D01*
X-0034016D02*
Y-0005699D01*
X-0034072Y-0005754D01*
X-0034315Y-0005699D02*
Y-0005976D01*
X-0034343Y-0006032D01*
X-0034509D01*
X-0034537Y-0005976D01*
Y-0005699D01*
X-0034783Y-0004118D02*
X-0035005D01*
X-0034783Y-0003896D01*
Y-0003840D01*
X-0034811Y-0003785D01*
X-0034977D01*
X-0035005Y-0003840D01*
X-0035387Y-0004007D02*
Y-0004063D01*
X-0035360Y-0004118D01*
X-0035248D01*
X-0035221Y-0004063D01*
Y-0003785D01*
X-0035193D02*
X-0035304D01*
X-0027125Y-0007006D02*
X-0027236D01*
X-0027180D02*
Y-0006673D01*
X-0027236Y-0006728D01*
X-0027674Y-0007006D02*
Y-0006673D01*
X-0027701Y-0007006D02*
X-0027535D01*
X-0027479Y-0006895D01*
Y-0006784D01*
X-0027535Y-0006673D01*
X-0027701D01*
X-0027248Y-0004228D02*
X-0027359D01*
X-0027303D02*
Y-0003895D01*
X-0027359Y-0003951D01*
X-0033658Y-0005666D02*
X-0030908D01*
Y-0007166D01*
X-0033658D01*
Y-0005666D01*
X-0033408D02*
Y-0007166D01*
X-0029392Y-0002660D02*
Y-0003660D01*
X-0035392D01*
Y-0002660D01*
X-0029392D01*
X-0030594Y-0013095D02*
X-0033844D01*
Y-0013845D01*
X-0030594D01*
Y-0013095D01*
X-0030844D02*
Y-0013845D01*
X-0027733Y-0016429D02*
Y-0017429D01*
X-0029733D01*
Y-0016429D01*
X-0027733D01*
X-0027833Y-0006505D02*
X-0026833D01*
Y-0004405D01*
X-0027833D01*
Y-0004955D01*
Y-0005955D01*
Y-0006505D01*
X-0038801Y-0011502D02*
X-0039801D01*
Y-0007502D01*
X-0038801D01*
Y-0011502D01*
G54D34*
G01X-0029445Y-0010545D02*
X-0029389Y-0010600D01*
X-0029278D01*
X-0029222Y-0010545D01*
Y-0010489D01*
X-0029333Y-0010378D01*
X-0029222Y-0010267D01*
X-0029445D01*
X-0029592Y-0010600D02*
X-0029703D01*
X-0029648D02*
Y-0010267D01*
X-0029703Y-0010322D01*
X-0029990Y-0010434D02*
X-0029907Y-0010600D01*
X-0030129Y-0010434D02*
X-0029962D01*
X-0029907Y-0010378D01*
Y-0010322D01*
X-0029962Y-0010267D01*
X-0030129D01*
Y-0010600D01*
X-0036898Y-0016435D02*
X-0036732Y-0016102D01*
X-0036954D01*
X-0037185Y-0016269D02*
X-0037102Y-0016435D01*
X-0037324Y-0016269D02*
X-0037157D01*
X-0037102Y-0016213D01*
Y-0016157D01*
X-0037157Y-0016102D01*
X-0037324D01*
Y-0016435D01*
X-0036993Y-0013427D02*
X-0036966Y-0013482D01*
X-0036799D01*
X-0036771Y-0013427D01*
Y-0013316D01*
X-0036827Y-0013260D01*
X-0036993D01*
Y-0013149D01*
X-0036771D01*
X-0037141Y-0013427D02*
X-0037169Y-0013482D01*
X-0037336D01*
X-0037363Y-0013427D01*
Y-0013205D01*
X-0037336Y-0013149D01*
X-0037169D01*
X-0037141Y-0013205D01*
X-0028303Y-0010544D02*
X-0028275Y-0010599D01*
X-0028108D01*
X-0028081Y-0010544D01*
Y-0010433D01*
X-0028136Y-0010377D01*
X-0028303D01*
Y-0010266D01*
X-0028081D01*
X-0028451Y-0010599D02*
X-0028562D01*
X-0028506D02*
Y-0010266D01*
X-0028562Y-0010322D01*
X-0028848Y-0010433D02*
X-0028765Y-0010599D01*
X-0028987Y-0010433D02*
X-0028821D01*
X-0028765Y-0010377D01*
Y-0010322D01*
X-0028821Y-0010266D01*
X-0028987D01*
Y-0010599D01*
X-0036926Y-0014103D02*
X-0036760D01*
X-0036732Y-0014159D01*
Y-0014214D01*
X-0036760Y-0014270D01*
X-0036926D01*
X-0036954Y-0014214D01*
Y-0014159D01*
X-0036843Y-0013937D01*
X-0037185Y-0014103D02*
X-0037102Y-0014270D01*
X-0037324Y-0014103D02*
X-0037157D01*
X-0037102Y-0014048D01*
Y-0013992D01*
X-0037157Y-0013937D01*
X-0037324D01*
Y-0014270D01*
X-0033191Y-0009574D02*
X-0033413D01*
X-0033302Y-0009352D01*
X-0033246D01*
Y-0009685D01*
X-0033561D02*
X-0033672D01*
X-0033616D02*
Y-0009352D01*
X-0033672Y-0009407D01*
X-0033958Y-0009518D02*
X-0033875Y-0009685D01*
X-0034097Y-0009518D02*
X-0033931D01*
X-0033875Y-0009463D01*
Y-0009407D01*
X-0033931Y-0009352D01*
X-0034097D01*
Y-0009685D01*
X-0038640Y-0015236D02*
X-0038751D01*
X-0038695D02*
Y-0014903D01*
X-0038751Y-0014958D01*
X-0038954Y-0015236D02*
X-0039065D01*
X-0039010D02*
Y-0014903D01*
X-0039065Y-0014958D01*
X-0039352Y-0015070D02*
X-0039269Y-0015236D01*
X-0039491Y-0015070D02*
X-0039324D01*
X-0039269Y-0015014D01*
Y-0014958D01*
X-0039324Y-0014903D01*
X-0039491D01*
Y-0015236D01*
X-0027086Y-0015973D02*
X-0026919Y-0015639D01*
X-0027142D01*
X-0027289Y-0015917D02*
X-0027317Y-0015973D01*
X-0027484D01*
X-0027512Y-0015917D01*
Y-0015695D01*
X-0027484Y-0015639D01*
X-0027317D01*
X-0027289Y-0015695D01*
X-0036771Y-0015569D02*
X-0036993D01*
X-0036771Y-0015347D01*
Y-0015291D01*
X-0036799Y-0015236D01*
X-0036966D01*
X-0036993Y-0015291D01*
X-0037141Y-0015513D02*
X-0037169Y-0015569D01*
X-0037336D01*
X-0037363Y-0015513D01*
Y-0015291D01*
X-0037336Y-0015236D01*
X-0037169D01*
X-0037141Y-0015291D01*
X-0033186Y-0016702D02*
X-0033019D01*
X-0032992Y-0016757D01*
Y-0016813D01*
X-0033019Y-0016868D01*
X-0033186D01*
X-0033214Y-0016813D01*
Y-0016757D01*
X-0033103Y-0016535D01*
X-0033362Y-0016813D02*
X-0033389Y-0016868D01*
X-0033556D01*
X-0033584Y-0016813D01*
Y-0016590D01*
X-0033556Y-0016535D01*
X-0033389D01*
X-0033362Y-0016590D01*
X-0036836Y-0011033D02*
X-0036948D01*
X-0036892D02*
Y-0010700D01*
X-0036948Y-0010756D01*
X-0037151Y-0010978D02*
X-0037179Y-0011033D01*
X-0037345D01*
X-0037373Y-0010978D01*
Y-0010756D01*
X-0037345Y-0010700D01*
X-0037179D01*
X-0037151Y-0010756D01*
X-0035039Y-0010975D02*
X-0034872D01*
X-0034844Y-0011031D01*
Y-0011086D01*
X-0034872Y-0011142D01*
X-0035039D01*
X-0035066Y-0011086D01*
Y-0011031D01*
X-0034955Y-0010808D01*
X-0035214Y-0011142D02*
X-0035325D01*
X-0035270D02*
Y-0010808D01*
X-0035325Y-0010864D01*
X-0035612Y-0010975D02*
X-0035529Y-0011142D01*
X-0035751Y-0010975D02*
X-0035584D01*
X-0035529Y-0010920D01*
Y-0010864D01*
X-0035584Y-0010808D01*
X-0035751D01*
Y-0011142D01*
X-0038723Y-0014370D02*
X-0038779Y-0014315D01*
X-0038806Y-0014259D01*
Y-0014148D01*
X-0038779Y-0014092D01*
X-0038723Y-0014037D01*
X-0038668D01*
X-0038612Y-0014092D01*
X-0038584Y-0014148D01*
Y-0014259D01*
X-0038612Y-0014315D01*
X-0038668Y-0014370D01*
X-0038723D01*
X-0038954D02*
X-0039065D01*
X-0039010D02*
Y-0014037D01*
X-0039065Y-0014092D01*
X-0039352Y-0014203D02*
X-0039269Y-0014370D01*
X-0039491Y-0014203D02*
X-0039324D01*
X-0039269Y-0014148D01*
Y-0014092D01*
X-0039324Y-0014037D01*
X-0039491D01*
Y-0014370D01*
X-0031012Y-0009576D02*
X-0031179D01*
X-0031207Y-0009520D01*
Y-0009465D01*
X-0031179Y-0009409D01*
X-0031012D01*
X-0030985Y-0009465D01*
Y-0009520D01*
X-0031096Y-0009742D01*
X-0031438Y-0009576D02*
X-0031355Y-0009742D01*
X-0031577Y-0009576D02*
X-0031410D01*
X-0031355Y-0009520D01*
Y-0009465D01*
X-0031410Y-0009409D01*
X-0031577D01*
Y-0009742D01*
X-0031079Y-0016627D02*
X-0031052Y-0016683D01*
X-0030885D01*
X-0030857Y-0016627D01*
Y-0016516D01*
X-0030913Y-0016461D01*
X-0031079D01*
Y-0016350D01*
X-0030857D01*
X-0031310Y-0016516D02*
X-0031227Y-0016683D01*
X-0031449Y-0016516D02*
X-0031283D01*
X-0031227Y-0016461D01*
Y-0016405D01*
X-0031283Y-0016350D01*
X-0031449D01*
Y-0016683D01*
X-0029387Y-0006921D02*
X-0029331Y-0006977D01*
X-0029220D01*
X-0029165Y-0006921D01*
Y-0006866D01*
X-0029276Y-0006754D01*
X-0029165Y-0006643D01*
X-0029387D01*
X-0029618Y-0006810D02*
X-0029535Y-0006977D01*
X-0029757Y-0006810D02*
X-0029590D01*
X-0029535Y-0006754D01*
Y-0006699D01*
X-0029590Y-0006643D01*
X-0029757D01*
Y-0006977D01*
X-0037765Y-0011033D02*
X-0037987D01*
X-0037765Y-0010811D01*
Y-0010756D01*
X-0037793Y-0010700D01*
X-0037960D01*
X-0037987Y-0010756D01*
X-0038218Y-0010867D02*
X-0038135Y-0011033D01*
X-0038357Y-0010867D02*
X-0038191D01*
X-0038135Y-0010811D01*
Y-0010756D01*
X-0038191Y-0010700D01*
X-0038357D01*
Y-0011033D01*
X-0036800Y-0012471D02*
X-0036773Y-0012416D01*
Y-0012360D01*
X-0036800Y-0012304D01*
X-0036967D01*
X-0036995Y-0012360D01*
Y-0012416D01*
X-0036967Y-0012471D01*
X-0036800D01*
X-0036773Y-0012527D01*
Y-0012582D01*
X-0036800Y-0012638D01*
X-0036967D01*
X-0036995Y-0012582D01*
Y-0012527D01*
X-0036967Y-0012471D01*
X-0037226D02*
X-0037143Y-0012638D01*
X-0037365Y-0012471D02*
X-0037198D01*
X-0037143Y-0012416D01*
Y-0012360D01*
X-0037198Y-0012304D01*
X-0037365D01*
Y-0012638D01*
X-0038780Y-0013332D02*
X-0039002D01*
X-0038891Y-0013110D01*
X-0038835D01*
Y-0013443D01*
X-0039233Y-0013276D02*
X-0039150Y-0013443D01*
X-0039372Y-0013276D02*
X-0039205D01*
X-0039150Y-0013221D01*
Y-0013165D01*
X-0039205Y-0013110D01*
X-0039372D01*
Y-0013443D01*
X-0031089Y-0015456D02*
X-0031034Y-0015512D01*
X-0030923D01*
X-0030867Y-0015456D01*
Y-0015401D01*
X-0030978Y-0015290D01*
X-0030867Y-0015178D01*
X-0031089D01*
X-0031237Y-0015456D02*
X-0031265Y-0015512D01*
X-0031432D01*
X-0031459Y-0015456D01*
Y-0015234D01*
X-0031432Y-0015178D01*
X-0031265D01*
X-0031237Y-0015234D01*
X-0039031Y-0006238D02*
X-0039143D01*
X-0039087D02*
Y-0005905D01*
X-0039143Y-0005961D01*
X-0039429Y-0006072D02*
X-0039346Y-0006238D01*
X-0039568Y-0006072D02*
X-0039401D01*
X-0039346Y-0006016D01*
Y-0005961D01*
X-0039401Y-0005905D01*
X-0039568D01*
Y-0006238D01*
X-0038545Y-0016220D02*
X-0038767D01*
X-0038545Y-0015998D01*
Y-0015943D01*
X-0038573Y-0015887D01*
X-0038739D01*
X-0038767Y-0015943D01*
X-0038915Y-0016220D02*
X-0039026D01*
X-0038970D02*
Y-0015887D01*
X-0039026Y-0015943D01*
X-0039313Y-0016054D02*
X-0039229Y-0016220D01*
X-0039452Y-0016054D02*
X-0039285D01*
X-0039229Y-0015998D01*
Y-0015943D01*
X-0039285Y-0015887D01*
X-0039452D01*
Y-0016220D01*
X-0031103Y-0011818D02*
X-0031326D01*
X-0031215Y-0011596D01*
X-0031159D01*
Y-0011929D01*
X-0031473Y-0011874D02*
X-0031501Y-0011929D01*
X-0031668D01*
X-0031696Y-0011874D01*
Y-0011651D01*
X-0031668Y-0011596D01*
X-0031501D01*
X-0031473Y-0011651D01*
X-0032469Y-0010702D02*
X-0030269D01*
Y-0011602D01*
X-0032469D01*
Y-0010702D01*
X-0028930Y-0004323D02*
Y-0006523D01*
X-0029830D01*
Y-0004323D01*
X-0028930D01*
X-0030106Y-0012941D02*
Y-0010741D01*
X-0029206D01*
Y-0012941D01*
X-0030106D01*
X-0034481Y-0016444D02*
X-0036681D01*
Y-0015544D01*
X-0034481D01*
Y-0016444D01*
Y-0013728D02*
X-0036681D01*
Y-0012828D01*
X-0034481D01*
Y-0013728D01*
Y-0014633D02*
X-0036681D01*
Y-0013733D01*
X-0034481D01*
Y-0014633D01*
X-0034752Y-0009757D02*
X-0032552D01*
Y-0010657D01*
X-0034752D01*
Y-0009757D01*
X-0039673Y-0014166D02*
X-0037473D01*
Y-0015066D01*
X-0039673D01*
Y-0014166D01*
X-0027660Y-0016297D02*
X-0029860D01*
Y-0015397D01*
X-0027660D01*
Y-0016297D01*
X-0034481Y-0015539D02*
X-0036681D01*
Y-0014639D01*
X-0034481D01*
Y-0015539D01*
X-0037586Y-0010540D02*
Y-0008340D01*
X-0036686D01*
Y-0010540D01*
X-0037586D01*
X-0034752Y-0010702D02*
X-0032552D01*
Y-0011602D01*
X-0034752D01*
Y-0010702D01*
X-0039673Y-0013261D02*
X-0037473D01*
Y-0014161D01*
X-0039673D01*
Y-0013261D01*
X-0030269Y-0010657D02*
X-0032469D01*
Y-0009757D01*
X-0030269D01*
Y-0010657D01*
X-0032262Y-0016440D02*
X-0030062D01*
Y-0017340D01*
X-0032262D01*
Y-0016440D01*
X-0038531Y-0010540D02*
Y-0008340D01*
X-0037631D01*
Y-0010540D01*
X-0038531D01*
X-0036681Y-0011922D02*
X-0034481D01*
Y-0012822D01*
X-0036681D01*
Y-0011922D01*
X-0037473Y-0013255D02*
X-0039673D01*
Y-0012355D01*
X-0037473D01*
Y-0013255D01*
X-0032272Y-0015544D02*
X-0030072D01*
Y-0016444D01*
X-0032272D01*
Y-0015544D01*
X-0037551Y-0007271D02*
X-0039751D01*
Y-0006371D01*
X-0037551D01*
Y-0007271D01*
X-0039673Y-0015072D02*
X-0037473D01*
Y-0015972D01*
X-0039673D01*
Y-0015072D01*
X-0029121Y-0012940D02*
Y-0010740D01*
X-0028221D01*
Y-0012940D01*
X-0029121D01*
X-0032276Y-0016444D02*
X-0034476D01*
Y-0015544D01*
X-0032276D01*
Y-0016444D01*
M02*
